PathFileType	4	(x/y/z)	S10_M20_T01
DataRate	CameraRate	NumFrames	NumMarkers	Units	OrigDataRate	OrigDataStartFrame	OrigNumFrames
240	240	4	51	mm	240	191	508
Frame#	Time	Sternum			R.Acromium			L.Acromium			Top.Head			R.ASIS			L.ASIS			R.PSIS			L.PSIS			R.Great.Tro			L.Great.Tro			R.Iliac.Crest			L.Iliac.Crest			V.Sacral			R.Thigh.Upper.Post			R.Thigh.Lower.Ant			R.Thigh.Lower.Post			R.Thigh.Upper.Ant			R.Knee.Lat			R.Knee.Med			R.Shank.Upper.Post			R.Shank.Lower.Ant			R.Shank.Lower.Post			R.Shank.Upper.Ant			R.Ankle.Lat			R.Ankle.Med			R.Heel.Upper			R.Heel.Med			R.Heel.Lat			R.Toe.Lat			R.Toe.Med			R.Toe.Tip			L.Thigh.Upper.Post			L.Thigh.Lower.Ant			L.Thigh.Lower.Post			L.Thigh.Upper.Ant			L.Knee.Lat			L.Knee.Med			L.Shank.Upper.Post			L.Shank.Lower.Ant			L.Shank.Lower.Post			L.Shank.Upper.Ant			L.Ankle.Lat			L.Ankle.Med			L.Heel.Upper			L.Heel.Med			L.Heel.Lat			L.Toe.Lat			L.Toe.Med			L.Toe.Tip			Cervical.Spine			Back			
		X1	Y1	Z1	X2	Y2	Z2	X3	Y3	Z3	X4	Y4	Z4	X5	Y5	Z5	X6	Y6	Z6	X7	Y7	Z7	X8	Y8	Z8	X9	Y9	Z9	X10	Y10	Z10	X11	Y11	Z11	X12	Y12	Z12	X13	Y13	Z13	X14	Y14	Z14	X15	Y15	Z15	X16	Y16	Z16	X17	Y17	Z17	X18	Y18	Z18	X19	Y19	Z19	X20	Y20	Z20	X21	Y21	Z21	X22	Y22	Z22	X23	Y23	Z23	X24	Y24	Z24	X25	Y25	Z25	X26	Y26	Z26	X27	Y27	Z27	X28	Y28	Z28	X29	Y29	Z29	X30	Y30	Z30	X31	Y31	Z31	X32	Y32	Z32	X33	Y33	Z33	X34	Y34	Z34	X35	Y35	Z35	X36	Y36	Z36	X37	Y37	Z37	X38	Y38	Z38	X39	Y39	Z39	X40	Y40	Z40	X41	Y41	Z41	X42	Y42	Z42	X43	Y43	Z43	X44	Y44	Z44	X45	Y45	Z45	X46	Y46	Z46	X47	Y47	Z47	X48	Y48	Z48	X49	Y49	Z49	X50	Y50	Z50	X51	Y51	Z51	

191	0.79167	-498.8	1240.2	371.25	-639.79	1382.1	525.15	-612.2	1432.7	225.75	-682.45	1709	405.75	-542.46	982.01	458.41	-557.61	978.17	227.82	-750.82	992.16	383.24	-747.66	994.81	302.5	-593.56	911.7	540.52	-632.61	905.87	175.05	-643.62	1060	508.86	-626.01	1056.4	203.49	-771.24	959	349.03	-498.74	722.33	531.69	-423.65	672.34	483.48	-470.37	637.8	520.81	-452.36	758.89	488.53	-428.67	519.67	477.49	-449.22	522.55	353.11	-473.72	288.9	488.91	-406.43	230.95	468.05	-467	214.79	484.69	-406.98	308.3	471.15	-450.97	106.4	462.7	-436.77	115.2	385.26	-511.3	64.363	418.98	-499.57	35.371	392.61	-504.87	40.166	453.95	-332.44	40.706	499.26	-303.7	45.206	390.22	-246.18	63.927	433.22	-730.67	651.99	193.92	-674.5	556.59	194	-746.04	558.87	209.53	-653.74	643.42	177.13	-742.1	471.67	201.78	-704.1	445.1	323.2	-933.02	376.04	205	-955.47	266.92	202.52	-990.19	322.04	211.33	-899.48	320.52	197.27	-1066.8	214.87	214.45	-1042.6	203.62	297.69	-1112.7	253.6	265.01	-1131.1	229.01	299.53	-1140.6	237.22	235.72	-1083.1	79.464	185.58	-1052.3	60.424	287.17	-1016.1	35.593	239.28	-705.12	1459.4	380.55	-785.36	1253.1	343.64
192	0.79583	-493.27	1241.1	372.18	-634.16	1383	525.95	-606.7	1433.6	226.52	-676.97	1709.8	406.79	-536.89	982.92	459.51	-552.2	978.78	228.9	-745.26	992.95	384.11	-742.25	995.44	303.36	-587.88	912.61	541.59	-626.8	906.11	176.24	-638.09	1060.9	509.84	-620.38	1057	204.41	-765.73	959.68	349.98	-493.86	722.69	532.49	-419.08	672.3	484.17	-465.96	638	521.5	-447.34	759.02	489.33	-425.29	519.45	478.05	-445.36	522.7	353.67	-472.14	289.06	489.1	-405.26	230.58	468.31	-466.01	214.9	484.79	-405.18	307.91	471.5	-450.78	106.48	462.63	-436.44	115.32	385.28	-511.29	64.346	419	-499.57	35.372	392.63	-504.87	40.161	453.96	-332.41	40.777	499.26	-303.69	45.123	390.16	-246.17	63.795	433.17	-722.38	650.91	194.51	-665.22	556.11	194.2	-736.85	557.5	209.92	-645.35	643.26	177.51	-732.02	470.88	201.8	-693.2	443.74	322.96	-923.33	377.64	205.43	-947.04	268.83	202.37	-981.17	324.35	211.57	-890.47	321.79	197.23	-1058.8	218.1	214.38	-1034.7	206.42	297.88	-1102.9	258.15	265.05	-1122	234.26	299.77	-1131.5	242.67	235.92	-1079.2	82.587	185.82	-1048.4	62.559	287.33	-1013.7	35.364	239.02	-699.56	1460.2	381.36	-779.76	1253.9	344.42
193	0.8	-487.78	1242	373.05	-628.53	1384	526.72	-601.26	1434.4	227.26	-671.5	1710.7	407.79	-531.36	983.8	460.53	-546.88	979.43	229.9	-739.75	993.76	385.03	-736.91	996.09	304.28	-582.2	913.5	542.63	-621.13	906.4	177.41	-632.54	1061.8	510.81	-614.89	1057.5	205.3	-760.28	960.37	350.99	-489.11	723	533.27	-414.65	672.17	484.86	-461.72	638.13	522.19	-442.41	759.08	490.11	-422.06	519.19	478.6	-441.84	522.75	354.25	-470.63	289.2	489.28	-404.14	230.21	468.58	-465.07	215	484.89	-403.47	307.52	471.87	-450.6	106.56	462.58	-436.13	115.43	385.3	-511.27	64.329	419.01	-499.57	35.375	392.64	-504.86	40.157	453.97	-332.38	40.835	499.27	-303.67	45.045	390.11	-246.16	63.671	433.14	-714.1	649.91	195.08	-655.94	555.71	194.38	-727.63	556.21	210.28	-636.97	643.17	177.88	-721.88	470.18	201.83	-682.26	442.52	322.76	-913.49	379.26	205.85	-938.44	270.76	202.24	-971.97	326.67	211.8	-881.31	323.08	197.21	-1050.6	221.31	214.33	-1026.6	209.24	298.1	-1093	262.58	265.09	-1112.7	239.38	299.99	-1122.2	247.98	236.12	-1074.9	85.789	186.05	-1044.2	64.785	287.49	-1011	35.261	238.75	-694.02	1461	382.16	-774.21	1254.8	345.24
194	0.80417	-482.35	1242.9	373.83	-622.88	1385	527.47	-595.89	1435.3	227.97	-666.03	1711.5	408.77	-525.86	984.65	461.48	-541.66	980.1	230.83	-734.3	994.58	386	-731.64	996.76	305.24	-576.52	914.37	543.66	-615.6	906.74	178.57	-626.96	1062.7	511.78	-609.55	1058.1	206.18	-754.9	961.09	352.06	-484.48	723.27	534.03	-410.36	671.97	485.56	-457.63	638.22	522.87	-437.59	759.08	490.88	-418.97	518.9	479.15	-438.66	522.71	354.85	-469.19	289.31	489.48	-403.08	229.84	468.85	-464.18	215.08	485	-401.83	307.12	472.23	-450.42	106.63	462.53	-435.84	115.54	385.32	-511.25	64.312	419.03	-499.57	35.382	392.65	-504.86	40.154	453.98	-332.36	40.879	499.27	-303.65	44.97	390.06	-246.15	63.55	433.1	-705.83	648.98	195.63	-646.65	555.42	194.55	-718.38	555.03	210.62	-628.62	643.16	178.23	-711.7	469.58	201.87	-671.3	441.44	322.59	-903.52	380.89	206.25	-929.68	272.71	202.15	-962.61	328.99	212.02	-872.01	324.39	197.22	-1042.2	224.5	214.3	-1018.3	212.07	298.35	-1082.9	266.88	265.14	-1103.3	244.34	300.21	-1112.8	253.14	236.31	-1070.2	89.049	186.27	-1039.7	67.083	287.64	-1007.9	35.306	238.48	-688.51	1461.9	382.96	-768.71	1255.7	346.1
